<?xml version="1.0" encoding="iso-8859-1"?>
<!-- Uploaded to: SVG Repo, www.svgrepo.com, Generator: SVG Repo Mixer Tools -->
<!DOCTYPE svg PUBLIC "-//W3C//DTD SVG 1.1//EN" "http://www.w3.org/Graphics/SVG/1.1/DTD/svg11.dtd">
<svg version="1.1" id="Capa_1" xmlns="http://www.w3.org/2000/svg" xmlns:xlink="http://www.w3.org/1999/xlink" 
	 viewBox="0 0 297.5 297.5" xml:space="preserve">
<g>
	<g id="XMLID_40_">
		<g>
			<path style="fill:#FF4855;" d="M183.22,123.42v9.67h-19.65c-5.51,0-9.98,4.47-9.98,9.98v19.65h-9.67v-19.65
				c0-5.51-4.47-9.98-9.98-9.98h-19.66v-9.67h19.66c5.51,0,9.98-4.47,9.98-9.98V93.79h9.67v19.65c0,5.51,4.47,9.98,9.98,9.98H183.22
				z"/>
			<path style="fill:#00C08D;" d="M236.56,36.5v240.79H60.95V36.5h28.94v6.32c0,5.51,4.46,9.98,9.97,9.98h97.78
				c5.51,0,9.98-4.47,9.98-9.98V36.5H236.56z M215.77,254.68c0-5.51-4.47-9.98-9.98-9.98H91.71c-5.51,0-9.97,4.47-9.97,9.98
				c0,5.51,4.46,9.98,9.97,9.98h114.08C211.3,264.66,215.77,260.19,215.77,254.68z M207.62,222.09c0-5.51-4.47-9.98-9.98-9.98H99.86
				c-5.51,0-9.97,4.47-9.97,9.98c0,5.51,4.46,9.97,9.97,9.97h97.78C203.15,232.06,207.62,227.6,207.62,222.09z M203.18,143.07
				v-29.63c0-5.51-4.47-9.98-9.98-9.98h-19.65V83.81c0-5.51-4.47-9.98-9.98-9.98h-29.63c-5.51,0-9.98,4.47-9.98,9.98v19.65h-19.65
				c-5.51,0-9.98,4.47-9.98,9.98v29.63c0,5.51,4.47,9.98,9.98,9.98h19.65v19.65c0,5.51,4.47,9.98,9.98,9.98h29.63
				c5.51,0,9.98-4.47,9.98-9.98v-19.65h19.65C198.71,153.05,203.18,148.58,203.18,143.07z"/>
			<rect x="109.84" y="20.21" style="fill:#ACBFC7;" width="77.83" height="12.63"/>
			<path d="M256.51,26.52v260.75c0,5.51-4.47,9.98-9.98,9.98H50.97c-5.51,0-9.98-4.47-9.98-9.98V26.52c0-5.51,4.47-9.97,9.98-9.97
				h38.92v-6.32c0-5.51,4.46-9.98,9.97-9.98h97.78c5.51,0,9.98,4.47,9.98,9.98v6.32h38.91C252.04,16.55,256.51,21.01,256.51,26.52z
				 M236.56,277.29V36.5h-28.94v6.32c0,5.51-4.47,9.98-9.98,9.98H99.86c-5.51,0-9.97-4.47-9.97-9.98V36.5H60.95v240.79H236.56z
				 M187.67,32.84V20.21h-77.83v12.63H187.67z"/>
			<path d="M205.79,244.7c5.51,0,9.98,4.47,9.98,9.98c0,5.51-4.47,9.98-9.98,9.98H91.71c-5.51,0-9.97-4.47-9.97-9.98
				c0-5.51,4.46-9.98,9.97-9.98H205.79z"/>
			<path d="M197.64,212.11c5.51,0,9.98,4.47,9.98,9.98c0,5.51-4.47,9.97-9.98,9.97H99.86c-5.51,0-9.97-4.46-9.97-9.97
				c0-5.51,4.46-9.98,9.97-9.98H197.64z"/>
			<path d="M203.18,113.44v29.63c0,5.51-4.47,9.98-9.98,9.98h-19.65v19.65c0,5.51-4.47,9.98-9.98,9.98h-29.63
				c-5.51,0-9.98-4.47-9.98-9.98v-19.65h-19.65c-5.51,0-9.98-4.47-9.98-9.98v-29.63c0-5.51,4.47-9.98,9.98-9.98h19.65V83.81
				c0-5.51,4.47-9.98,9.98-9.98h29.63c5.51,0,9.98,4.47,9.98,9.98v19.65h19.65C198.71,103.46,203.18,107.93,203.18,113.44z
				 M183.22,133.09v-9.67h-19.65c-5.51,0-9.98-4.47-9.98-9.98V93.79h-9.67v19.65c0,5.51-4.47,9.98-9.98,9.98h-19.66v9.67h19.66
				c5.51,0,9.98,4.47,9.98,9.98v19.65h9.67v-19.65c0-5.51,4.47-9.98,9.98-9.98H183.22z"/>
		</g>
		<g>
		</g>
	</g>
</g>
</svg>