<?xml version="1.0" encoding="iso-8859-1"?>
<!-- Uploaded to: SVG Repo, www.svgrepo.com, Generator: SVG Repo Mixer Tools -->
<!DOCTYPE svg PUBLIC "-//W3C//DTD SVG 1.1//EN" "http://www.w3.org/Graphics/SVG/1.1/DTD/svg11.dtd">
<svg height="800px" width="800px" version="1.1" id="Capa_1" xmlns="http://www.w3.org/2000/svg" xmlns:xlink="http://www.w3.org/1999/xlink" 
	 viewBox="0 0 297.5 297.5" xml:space="preserve">
<g>
	<g id="XMLID_28_">
		<g>
			<path style="fill:#CDD9DD;" d="M148.747,182.48c-36.64,0-53.51,51.28-61.21,94.3c-0.03,0.21-0.05,0.3-0.35,0.37
				c-0.36,0.09-0.48-0.05-0.6-0.21c-28.89-37.81-47.41-81-55.04-128.36c-5.68-35.3-3.85-66-0.55-81.55
				c2.98-14.05,13.32-46.72,44.86-46.72c20.51,0,24.45,4.21,37.49,18.16c2.91,3.11,6.2,6.63,10.08,10.51
				c6.74,6.74,15.74,10.46,25.32,10.46c9.59,0,18.58-3.72,25.32-10.46c3.89-3.88,7.18-7.4,10.08-10.51
				c13.05-13.95,16.98-18.16,37.49-18.16c31.55,0,41.88,32.67,44.86,46.72c3.3,15.55,5.14,46.25-0.55,81.55
				c-7.62,47.36-26.14,90.55-55.03,128.36c-0.13,0.16-0.24,0.3-0.6,0.21c-0.3-0.07-0.32-0.16-0.36-0.37
				C202.257,233.76,185.387,182.48,148.747,182.48z"/>
			<path d="M286.117,62.87c1.33,6.24,7.53,39.86-0.36,88.9c-8.16,50.67-27.98,96.88-58.91,137.35c-5.04,6.6-13.19,9.48-21.26,7.53
				c-8.03-1.95-13.92-8.21-15.37-16.34c-8.72-48.7-24.22-77.77-41.47-77.77s-32.74,29.07-41.46,77.77
				c-1.45,8.13-7.35,14.39-15.38,16.34c-1.67,0.4-3.34,0.6-4.99,0.6c-6.32,0-12.27-2.9-16.27-8.13
				c-30.92-40.47-50.74-86.68-58.9-137.35c-7.9-49.04-1.69-82.66-0.37-88.9c8.32-39.21,32.42-62.62,64.48-62.62
				c29.22,0,38.34,9.76,52.15,24.52c2.79,2.99,5.96,6.38,9.61,10.03c2.95,2.95,6.9,4.58,11.13,4.58c4.23,0,8.19-1.63,11.14-4.58
				c3.65-3.65,6.81-7.04,9.61-10.03c13.81-14.76,22.93-24.52,52.14-24.52C253.697,0.25,277.807,23.66,286.117,62.87z
				 M265.947,148.58c5.69-35.3,3.85-66,0.55-81.55c-2.98-14.05-13.31-46.72-44.86-46.72c-20.51,0-24.44,4.21-37.49,18.16
				c-2.9,3.11-6.19,6.63-10.08,10.51c-6.74,6.74-15.73,10.46-25.32,10.46c-9.58,0-18.58-3.72-25.32-10.46
				c-3.88-3.88-7.17-7.4-10.08-10.51c-13.04-13.95-16.98-18.16-37.49-18.16c-31.54,0-41.88,32.67-44.86,46.72
				c-3.3,15.55-5.13,46.25,0.55,81.55c7.63,47.36,26.15,90.55,55.04,128.36c0.12,0.16,0.24,0.3,0.6,0.21
				c0.3-0.07,0.32-0.16,0.35-0.37c7.7-43.02,24.57-94.3,61.21-94.3s53.51,51.28,61.21,94.3c0.04,0.21,0.06,0.3,0.36,0.37
				c0.36,0.09,0.47-0.05,0.6-0.21C239.807,239.13,258.327,195.94,265.947,148.58z"/>
		</g>
		<g>
		</g>
	</g>
</g>
</svg>