<?xml version="1.0" encoding="iso-8859-1"?>
<!-- Uploaded to: SVG Repo, www.svgrepo.com, Generator: SVG Repo Mixer Tools -->
<!DOCTYPE svg PUBLIC "-//W3C//DTD SVG 1.1//EN" "http://www.w3.org/Graphics/SVG/1.1/DTD/svg11.dtd">
<svg version="1.1" id="Capa_1" xmlns="http://www.w3.org/2000/svg" xmlns:xlink="http://www.w3.org/1999/xlink" 
	 viewBox="0 0 297.5 297.5" xml:space="preserve">
<g>
	<g id="XMLID_40_">
		<g>
			<rect x="126.06" y="215.73" style="fill:#00C08D;" width="16.74" height="61.68"/>
			<rect x="154.7" y="215.73" style="fill:#00C08D;" width="16.74" height="61.68"/>
			<path style="fill:#00C08D;" d="M204.05,20.09v61.68H93.46V20.09H204.05z M174.98,50.93c0-5.48-4.45-9.92-9.92-9.92h-6.39v-6.39
				c0-5.47-4.44-9.91-9.92-9.91c-5.47,0-9.92,4.44-9.92,9.91v6.39h-6.38c-5.48,0-9.92,4.44-9.92,9.92s4.44,9.92,9.92,9.92h6.38v6.38
				c0,5.48,4.45,9.92,9.92,9.92c5.48,0,9.92-4.44,9.92-9.92v-6.38h6.39C170.53,60.85,174.98,56.41,174.98,50.93z"/>
			<path style="fill:#CDD9DD;" d="M269.26,85.3v192.11h-77.98v-71.6c0-5.47-4.44-9.92-9.92-9.92h-65.21c-5.48,0-9.92,4.45-9.92,9.92
				v71.6H28.24V85.3h45.38v6.39c0,5.47,4.44,9.92,9.92,9.92h130.43c5.48,0,9.92-4.45,9.92-9.92V85.3H269.26z M256.49,124.29
				c0-5.47-4.44-9.91-9.91-9.91h-32.61c-5.48,0-9.92,4.44-9.92,9.91c0,5.48,4.44,9.92,9.92,9.92h32.61
				C252.05,134.21,256.49,129.77,256.49,124.29z M256.49,156.9c0-5.48-4.44-9.92-9.91-9.92h-32.61c-5.48,0-9.92,4.44-9.92,9.92
				c0,5.48,4.44,9.92,9.92,9.92h32.61C252.05,166.82,256.49,162.38,256.49,156.9z M256.49,189.51c0-5.48-4.44-9.92-9.91-9.92h-32.61
				c-5.48,0-9.92,4.44-9.92,9.92c0,5.48,4.44,9.92,9.92,9.92h32.61C252.05,199.43,256.49,194.99,256.49,189.51z M256.49,222.12
				c0-5.48-4.44-9.92-9.91-9.92h-32.61c-5.48,0-9.92,4.44-9.92,9.92c0,5.47,4.44,9.92,9.92,9.92h32.61
				C252.05,232.04,256.49,227.59,256.49,222.12z M256.49,254.72c0-5.47-4.44-9.91-9.91-9.91h-32.61c-5.48,0-9.92,4.44-9.92,9.91
				c0,5.48,4.44,9.92,9.92,9.92h32.61C252.05,264.64,256.49,260.2,256.49,254.72z M174.98,124.29c0-5.47-4.45-9.91-9.92-9.91h-32.61
				c-5.48,0-9.92,4.44-9.92,9.91c0,5.48,4.44,9.92,9.92,9.92h32.61C170.53,134.21,174.98,129.77,174.98,124.29z M174.98,156.9
				c0-5.48-4.45-9.92-9.92-9.92h-32.61c-5.48,0-9.92,4.44-9.92,9.92c0,5.48,4.44,9.92,9.92,9.92h32.61
				C170.53,166.82,174.98,162.38,174.98,156.9z M93.46,124.29c0-5.47-4.44-9.91-9.92-9.91H50.93c-5.48,0-9.92,4.44-9.92,9.91
				c0,5.48,4.44,9.92,9.92,9.92h32.61C89.02,134.21,93.46,129.77,93.46,124.29z M93.46,156.9c0-5.48-4.44-9.92-9.92-9.92H50.93
				c-5.48,0-9.92,4.44-9.92,9.92c0,5.48,4.44,9.92,9.92,9.92h32.61C89.02,166.82,93.46,162.38,93.46,156.9z M93.46,189.51
				c0-5.48-4.44-9.92-9.92-9.92H50.93c-5.48,0-9.92,4.44-9.92,9.92c0,5.48,4.44,9.92,9.92,9.92h32.61
				C89.02,199.43,93.46,194.99,93.46,189.51z M93.46,222.12c0-5.48-4.44-9.92-9.92-9.92H50.93c-5.48,0-9.92,4.44-9.92,9.92
				c0,5.47,4.44,9.92,9.92,9.92h32.61C89.02,232.04,93.46,227.59,93.46,222.12z M93.46,254.72c0-5.47-4.44-9.91-9.92-9.91H50.93
				c-5.48,0-9.92,4.44-9.92,9.91c0,5.48,4.44,9.92,9.92,9.92h32.61C89.02,264.64,93.46,260.2,93.46,254.72z"/>
			<path d="M289.1,75.38v211.95c0,5.48-4.44,9.92-9.92,9.92H18.32c-5.47,0-9.92-4.44-9.92-9.92V75.38c0-5.47,4.45-9.92,9.92-9.92
				h55.3V10.17c0-5.48,4.44-9.92,9.92-9.92h130.43c5.48,0,9.92,4.44,9.92,9.92v55.29h55.29C284.66,65.46,289.1,69.91,289.1,75.38z
				 M269.26,277.41V85.3h-45.37v6.39c0,5.47-4.44,9.92-9.92,9.92H83.54c-5.48,0-9.92-4.45-9.92-9.92V85.3H28.24v192.11h77.99v-71.6
				c0-5.47,4.44-9.92,9.92-9.92h65.21c5.48,0,9.92,4.45,9.92,9.92v71.6H269.26z M204.05,81.77V20.09H93.46v61.68H204.05z
				 M171.44,277.41v-61.68H154.7v61.68H171.44z M142.8,277.41v-61.68h-16.74v61.68H142.8z"/>
			<path d="M246.58,114.38c5.47,0,9.91,4.44,9.91,9.91c0,5.48-4.44,9.92-9.91,9.92h-32.61c-5.48,0-9.92-4.44-9.92-9.92
				c0-5.47,4.44-9.91,9.92-9.91H246.58z"/>
			<path d="M246.58,146.98c5.47,0,9.91,4.44,9.91,9.92c0,5.48-4.44,9.92-9.91,9.92h-32.61c-5.48,0-9.92-4.44-9.92-9.92
				c0-5.48,4.44-9.92,9.92-9.92H246.58z"/>
			<path d="M246.58,179.59c5.47,0,9.91,4.44,9.91,9.92c0,5.48-4.44,9.92-9.91,9.92h-32.61c-5.48,0-9.92-4.44-9.92-9.92
				c0-5.48,4.44-9.92,9.92-9.92H246.58z"/>
			<path d="M246.58,212.2c5.47,0,9.91,4.44,9.91,9.92c0,5.47-4.44,9.92-9.91,9.92h-32.61c-5.48,0-9.92-4.45-9.92-9.92
				c0-5.48,4.44-9.92,9.92-9.92H246.58z"/>
			<path d="M246.58,244.81c5.47,0,9.91,4.44,9.91,9.91c0,5.48-4.44,9.92-9.91,9.92h-32.61c-5.48,0-9.92-4.44-9.92-9.92
				c0-5.47,4.44-9.91,9.92-9.91H246.58z"/>
			<path d="M165.06,41.01c5.47,0,9.92,4.44,9.92,9.92s-4.45,9.92-9.92,9.92h-6.39v6.38c0,5.48-4.44,9.92-9.92,9.92
				c-5.47,0-9.92-4.44-9.92-9.92v-6.38h-6.38c-5.48,0-9.92-4.44-9.92-9.92s4.44-9.92,9.92-9.92h6.38v-6.39
				c0-5.47,4.45-9.91,9.92-9.91c5.48,0,9.92,4.44,9.92,9.91v6.39H165.06z"/>
			<path d="M165.06,114.38c5.47,0,9.92,4.44,9.92,9.91c0,5.48-4.45,9.92-9.92,9.92h-32.61c-5.48,0-9.92-4.44-9.92-9.92
				c0-5.47,4.44-9.91,9.92-9.91H165.06z"/>
			<path d="M165.06,146.98c5.47,0,9.92,4.44,9.92,9.92c0,5.48-4.45,9.92-9.92,9.92h-32.61c-5.48,0-9.92-4.44-9.92-9.92
				c0-5.48,4.44-9.92,9.92-9.92H165.06z"/>
			<path d="M83.54,114.38c5.48,0,9.92,4.44,9.92,9.91c0,5.48-4.44,9.92-9.92,9.92H50.93c-5.48,0-9.92-4.44-9.92-9.92
				c0-5.47,4.44-9.91,9.92-9.91H83.54z"/>
			<path d="M83.54,146.98c5.48,0,9.92,4.44,9.92,9.92c0,5.48-4.44,9.92-9.92,9.92H50.93c-5.48,0-9.92-4.44-9.92-9.92
				c0-5.48,4.44-9.92,9.92-9.92H83.54z"/>
			<path d="M83.54,179.59c5.48,0,9.92,4.44,9.92,9.92c0,5.48-4.44,9.92-9.92,9.92H50.93c-5.48,0-9.92-4.44-9.92-9.92
				c0-5.48,4.44-9.92,9.92-9.92H83.54z"/>
			<path d="M83.54,212.2c5.48,0,9.92,4.44,9.92,9.92c0,5.47-4.44,9.92-9.92,9.92H50.93c-5.48,0-9.92-4.45-9.92-9.92
				c0-5.48,4.44-9.92,9.92-9.92H83.54z"/>
			<path d="M83.54,244.81c5.48,0,9.92,4.44,9.92,9.91c0,5.48-4.44,9.92-9.92,9.92H50.93c-5.48,0-9.92-4.44-9.92-9.92
				c0-5.47,4.44-9.91,9.92-9.91H83.54z"/>
		</g>
		<g>
		</g>
	</g>
</g>
</svg>