<?xml version="1.0" encoding="iso-8859-1"?>
<!-- Uploaded to: SVG Repo, www.svgrepo.com, Generator: SVG Repo Mixer Tools -->
<!DOCTYPE svg PUBLIC "-//W3C//DTD SVG 1.1//EN" "http://www.w3.org/Graphics/SVG/1.1/DTD/svg11.dtd">
<svg version="1.1" id="Capa_1" xmlns="http://www.w3.org/2000/svg" xmlns:xlink="http://www.w3.org/1999/xlink" 
	 viewBox="0 0 297.5 297.5" xml:space="preserve">
<g id="XMLID_33_">
	<g>
		<rect x="257.75" y="109.561" style="fill:#98D577;" width="19.5" height="14.63"/>
		<path style="fill:#98D577;" d="M155.25,109.561v14.63H98.74l-78.49-31.4v-13.08l72.85,29.14c1.18,0.47,2.44,0.71,3.72,0.71H155.25
			z"/>
		<rect x="175.25" y="92.061" style="fill:#FFD63F;" width="62.5" height="29.5"/>
		<path d="M297.25,99.561v34.63c0,5.52-4.47,10-10,10h-20.97l-57.6,23.04l56.91,22.76c13.51,1.11,24.16,12.45,24.16,26.24
			c0,14.52-11.81,26.33-26.33,26.33c-14.52,0-26.33-11.81-26.33-26.33c0-5.3,1.58-10.24,4.29-14.38l-59.63-23.85l-59.62,23.85
			c2.71,4.14,4.29,9.08,4.29,14.38c0,14.52-11.81,26.33-26.33,26.33s-26.34-11.81-26.34-26.33c0-13.79,10.66-25.13,24.17-26.24
			l56.91-22.76L6.54,108.851c-3.8-1.52-6.29-5.2-6.29-9.29v-34.62c0-3.32,1.65-6.42,4.4-8.28c2.74-1.86,6.24-2.24,9.32-1.01
			l84.77,33.91h56.51v-7.5c0-5.52,4.48-10,10-10h82.5c5.53,0,10,4.48,10,10v7.5h29.5C292.78,89.561,297.25,94.041,297.25,99.561z
			 M277.25,124.191v-14.63h-19.5v14.63H277.25z M269.75,216.231c0-3.49-2.83-6.32-6.31-6.33c-0.01,0-0.01,0-0.02,0
			c-0.01,0-0.02,0-0.03,0c-3.48,0.01-6.3,2.85-6.3,6.33c0,3.49,2.84,6.33,6.33,6.33C266.91,222.561,269.75,219.721,269.75,216.231z
			 M237.75,121.561v-29.5h-62.5v29.5H237.75z M181.75,156.461l30.68-12.27h-61.36L181.75,156.461z M155.25,124.191v-14.63H96.82
			c-1.28,0-2.54-0.24-3.72-0.71l-72.85-29.14v13.08l78.49,31.4H155.25z M106.42,216.231c0-3.48-2.82-6.32-6.3-6.33
			c-0.01,0-0.02,0-0.03,0c-0.01,0-0.02,0-0.03,0c-3.48,0.01-6.31,2.84-6.31,6.33s2.84,6.33,6.34,6.33
			C103.58,222.561,106.42,219.721,106.42,216.231z"/>
	</g>
	<g>
	</g>
</g>
</svg>