<?xml version="1.0" encoding="iso-8859-1"?>
<!-- Uploaded to: SVG Repo, www.svgrepo.com, Generator: SVG Repo Mixer Tools -->
<!DOCTYPE svg PUBLIC "-//W3C//DTD SVG 1.1//EN" "http://www.w3.org/Graphics/SVG/1.1/DTD/svg11.dtd">
<svg height="800px" width="800px" version="1.1" id="Capa_1" xmlns="http://www.w3.org/2000/svg" xmlns:xlink="http://www.w3.org/1999/xlink" 
	 viewBox="0 0 297.5 297.5" xml:space="preserve">
<g id="XMLID_37_">
	<g>
		<path style="fill:#BCE6EC;" d="M42.655,154.48l100.36,100.36c-12.37,9.4-27.39,14.49-43.19,14.49c-19.14,0-37.13-7.45-50.67-20.99
			c-13.53-13.53-20.99-31.53-20.99-50.67C28.165,181.87,33.265,166.86,42.655,154.48z"/>
		<path style="fill:#BCE6EC;" d="M157.445,155.05c9.11,12.26,14.04,27.07,14.04,42.62c0,15.81-5.1,30.82-14.49,43.2L56.635,140.5
			c12.37-9.39,27.39-14.48,43.19-14.48c19.14,0,37.13,7.45,50.67,20.99c2.51,2.51,4.81,5.18,6.9,7.97
			C157.405,155.01,157.425,155.03,157.445,155.05z"/>
		<path style="fill:#FFD63F;" d="M269.325,67.21v71.66h-94.39V67.21c0-26.02,21.18-47.19,47.2-47.19S269.325,41.19,269.325,67.21z"
			/>
		<path style="fill:#0099EF;" d="M269.325,158.63v71.66c0,26.02-21.17,47.19-47.19,47.19c-20.59,0-38.14-13.26-44.57-31.68
			c8.9-14.32,13.68-30.85,13.68-48.13c0-13.72-3-26.99-8.7-39.04H269.325z"/>
		<path d="M289.095,67.21v163.08c0,36.92-30.04,66.96-66.96,66.96c-25.04,0-46.91-13.82-58.4-34.23
			c-17.18,16.81-39.83,26.08-63.91,26.08c-24.42,0-47.38-9.51-64.65-26.78c-17.26-17.27-26.77-40.23-26.77-64.65
			s9.51-47.37,26.77-64.64c17.27-17.27,40.23-26.78,64.65-26.78c20.27,0,39.51,6.57,55.35,18.67V67.21
			c0-36.92,30.04-66.96,66.96-66.96S289.095,30.29,289.095,67.21z M269.325,230.29v-71.66h-86.78c5.7,12.05,8.7,25.32,8.7,39.04
			c0,17.28-4.78,33.81-13.68,48.13c6.43,18.42,23.98,31.68,44.57,31.68C248.155,277.48,269.325,256.31,269.325,230.29z
			 M269.325,138.87V67.21c0-26.02-21.17-47.19-47.19-47.19s-47.2,21.17-47.2,47.19v71.66H269.325z M171.485,197.67
			c0-15.55-4.93-30.36-14.04-42.62c-0.02-0.02-0.04-0.04-0.05-0.07c-2.09-2.79-4.39-5.46-6.9-7.97
			c-13.54-13.54-31.53-20.99-50.67-20.99c-15.8,0-30.82,5.09-43.19,14.48l100.36,100.37
			C166.385,228.49,171.485,213.48,171.485,197.67z M143.015,254.84L42.655,154.48c-9.39,12.38-14.49,27.39-14.49,43.19
			c0,19.14,7.46,37.14,20.99,50.67c13.54,13.54,31.53,20.99,50.67,20.99C115.625,269.33,130.645,264.24,143.015,254.84z"/>
	</g>
	<g>
	</g>
</g>
</svg>