<?xml version="1.0" encoding="iso-8859-1"?>
<!-- Uploaded to: SVG Repo, www.svgrepo.com, Generator: SVG Repo Mixer Tools -->
<!DOCTYPE svg PUBLIC "-//W3C//DTD SVG 1.1//EN" "http://www.w3.org/Graphics/SVG/1.1/DTD/svg11.dtd">
<svg version="1.1" id="Capa_1" xmlns="http://www.w3.org/2000/svg" xmlns:xlink="http://www.w3.org/1999/xlink" 
	 viewBox="0 0 297.504 297.504" xml:space="preserve">
<g>
	<g id="XMLID_50_">
		<g>
			<path d="M279.19,99.782L89.67,289.312c-5.12,5.12-11.93,7.94-19.17,7.94c-7.25,0-14.05-2.82-19.17-7.94l-43.14-43.13
				c-5.12-5.12-7.94-11.93-7.94-19.17c0-7.25,2.82-14.05,7.94-19.17l189.53-189.53c1.9-1.9,4.47-2.96,7.14-2.96
				c2.68,0,5.25,1.06,7.15,2.96l8.64,8.64l29.91-24.42c4.02-3.28,9.87-2.99,13.53,0.68l30.2,30.2c3.67,3.67,3.97,9.51,0.69,13.53
				l-24.43,29.91l8.64,8.64C283.14,89.442,283.14,95.842,279.19,99.782z M256.19,62.492l17.36-21.25l-17.29-17.28l-21.25,17.35
				L256.19,62.492z M227.26,123.142l30.5-30.5l-52.9-52.9l-30.5,30.5L227.26,123.142z M212.97,137.432l-52.89-52.9l-97.69,97.69
				l52.9,52.89L212.97,137.432z M75.38,275.022l25.62-25.62l-52.9-52.89l-25.62,25.62c-1.3,1.3-2.02,3.03-2.02,4.88
				c0,1.84,0.72,3.57,2.02,4.88l43.13,43.13C68.31,277.712,72.69,277.712,75.38,275.022z"/>
			<polygon style="fill:#FFD63F;" points="273.55,41.242 256.19,62.492 235.01,41.312 256.26,23.962 			"/>
			<path style="fill:#98D577;" d="M101,249.402l-25.62,25.62c-2.69,2.69-7.07,2.69-9.77,0l-43.13-43.13
				c-1.3-1.31-2.02-3.04-2.02-4.88c0-1.85,0.72-3.58,2.02-4.88l25.62-25.62L101,249.402z"/>
			
				<rect x="194.493" y="44.036" transform="matrix(0.7071 -0.7071 0.7071 0.7071 5.6946 176.6312)" style="fill:#98D577;" width="43.134" height="74.812"/>
			<path style="fill:#00C08D;" d="M160.08,84.532l52.89,52.9l-97.68,97.68l-52.9-52.89L160.08,84.532z M153.88,153.632
				c2.76-2.76,2.76-7.24,0-10c-2.76-2.77-7.24-2.77-10-0.01l-25.13,25.13c-2.77,2.77-2.77,7.24-0.01,10.01
				c1.39,1.38,3.2,2.07,5.01,2.07s3.62-0.69,5-2.07L153.88,153.632z"/>
			<path d="M153.88,143.632c2.76,2.76,2.76,7.24,0,10l-25.13,25.13c-1.38,1.38-3.19,2.07-5,2.07s-3.62-0.69-5.01-2.07
				c-2.76-2.77-2.76-7.24,0.01-10.01l25.13-25.13C146.64,140.862,151.12,140.862,153.88,143.632z"/>
		</g>
		<g>
		</g>
	</g>
</g>
</svg>